# xmcd
#
# Track frame offsets:
#	182
#	22132
#	43207
#	67732
#	86482
#	107407
#	122782
#	140407
#	157057
#
# Disc length: 2301 seconds
#
# Revision: 1
# Processed by: cddbd v1.4PL0 Copyright (c) Steve Scherf et al.
# Submitted via: audiograbber 1.82.01
#
DISCID=7608fb09
DTITLE=Charbel Lawlache - Abou Ahla 3youn
DYEAR=1900
DGENRE=Other
TTITLE0=Abou Ahla 3youn
TTITLE1=Ha Tesafer Ya Amar
TTITLE2=Mare2 Albi
TTITLE3=Yah 3al Ibtisama
TTITLE4=Baddi Itjawaz
TTITLE5=Wala Kan 3ala Bali
TTITLE6=Arfani
TTITLE7=Zay El Nasma
TTITLE8=Min Wa2et
EXTD=
EXTT0=
EXTT1=
EXTT2=
EXTT3=
EXTT4=
EXTT5=
EXTT6=
EXTT7=
EXTT8=
PLAYORDER=
